<?xml version="1.0" standalone="no"?>
<!DOCTYPE svg PUBLIC "-//W3C//DTD SVG 20010904//EN"
 "http://www.w3.org/TR/2001/REC-SVG-20010904/DTD/svg10.dtd">
<svg version="1.0" xmlns="http://www.w3.org/2000/svg"
 width="80.000000pt" height="80.000000pt" viewBox="0 0 80.000000 80.000000"
 preserveAspectRatio="xMidYMid meet">
<metadata>
Created by potrace 1.14, written by Peter Selinger 2001-2017
</metadata>
<g transform="translate(0.000000,80.000000) scale(0.100000,-0.100000)"
fill="#000000" stroke="none">
<path d="M219 736 c-168 -42 -199 -55 -199 -85 0 -14 98 -420 131 -543 13 -50
38 -63 95 -49 27 7 51 8 62 2 9 -5 54 -12 98 -15 45 -4 93 -9 105 -11 78 -12
171 -15 188 -5 20 10 25 30 35 140 3 25 8 74 11 110 4 36 8 79 10 96 3 17 9
84 15 149 14 143 9 151 -85 159 -33 3 -91 9 -130 13 -38 4 -73 6 -77 5 -4 -1
-10 8 -14 21 -10 33 -35 57 -58 56 -12 -1 -96 -20 -187 -43z"/>
</g>
</svg>
